<?xml version="1.0" standalone="no"?>
<!DOCTYPE svg PUBLIC "-//W3C//DTD SVG 20010904//EN"
 "http://www.w3.org/TR/2001/REC-SVG-20010904/DTD/svg10.dtd">
<svg version="1.0" xmlns="http://www.w3.org/2000/svg"
 width="576.000000pt" height="360.000000pt" viewBox="0 0 576.000000 360.000000"
 preserveAspectRatio="xMidYMid meet">

<g transform="translate(0.000000,360.000000) scale(0.100000,-0.100000)"
fill="#000000" stroke="none">
<path d="M3380 2331 c0 -3 12 -53 27 -110 l27 -103 18 37 c47 90 197 86 427
-14 156 -67 157 -66 -154 -63 -182 2 -275 -1 -275 -8 0 -5 25 -117 56 -247 71
-304 72 -348 7 -391 -25 -16 -77 -17 -653 -20 l-625 -3 -26 -37 c-14 -20 -34
-49 -44 -64 l-17 -28 989 0 990 0 28 53 c36 67 61 94 108 119 87 44 189 31
263 -34 37 -32 44 -27 17 12 -58 88 -133 130 -233 130 -86 0 -151 -31 -211
-99 l-45 -51 -185 2 -184 3 -75 305 -76 305 268 3 c179 1 275 -1 289 -9 29
-15 20 -43 -16 -49 -20 -3 -31 -12 -33 -25 -4 -28 60 -165 89 -191 17 -15 78
-35 199 -64 206 -50 233 -60 256 -95 10 -15 30 -90 45 -167 15 -77 30 -142 32
-145 11 -11 17 76 8 117 -5 25 -14 84 -21 132 -8 56 -19 97 -31 112 -20 25
-117 64 -267 106 l-83 24 -51 91 c-28 49 -51 100 -50 113 1 13 -3 32 -8 43
-12 21 -60 49 -85 49 -9 0 -41 20 -72 45 -113 93 -267 162 -431 194 -112 22
-192 31 -192 22z m812 -476 c46 -85 46 -85 23 -91 -13 -3 -32 -1 -43 5 -23 12
-96 147 -87 161 3 6 18 10 33 10 23 0 33 -11 74 -85z"/>
<path d="M1170 1965 l0 -45 70 0 70 0 0 -130 0 -130 55 0 55 0 0 130 0 130 76
0 75 0 -3 43 -3 42 -197 3 -198 2 0 -45z"/>
<path d="M1590 1836 l0 -176 50 0 50 0 0 45 0 45 88 0 c48 0 92 -4 99 -8 6 -4
14 -24 18 -45 7 -36 8 -37 51 -37 l44 0 0 55 c0 42 -4 57 -18 66 -18 11 -17
13 6 36 22 22 24 31 20 84 -7 99 -12 101 -227 107 l-181 5 0 -177z m298 72 c7
-7 12 -21 12 -33 0 -38 -19 -45 -117 -45 l-93 0 0 45 0 45 93 0 c59 0 97 -4
105 -12z"/>
<path d="M2034 1995 c-3 -8 -4 -76 -2 -151 3 -133 4 -136 30 -159 21 -18 45
-25 104 -30 97 -10 221 0 250 20 35 22 45 77 42 210 l-3 120 -45 0 -45 0 -5
-117 c-3 -77 -9 -122 -18 -130 -9 -9 -42 -13 -98 -13 -112 0 -114 2 -114 152
l0 113 -45 0 c-31 0 -47 -5 -51 -15z"/>
<path d="M2568 2003 c-15 -2 -37 -16 -48 -30 -17 -22 -20 -40 -20 -143 0 -141
9 -158 86 -171 64 -10 198 -10 252 0 57 11 73 29 79 85 l6 46 -50 0 c-43 0
-51 -3 -61 -25 -11 -24 -16 -25 -92 -25 -113 0 -120 5 -120 88 0 40 5 73 12
80 8 8 45 12 101 12 80 0 89 -2 94 -20 4 -17 14 -20 54 -20 l49 0 0 36 c0 48
-14 70 -51 83 -30 10 -231 13 -291 4z"/>
<path d="M2957 2003 c-4 -3 -7 -82 -7 -175 l0 -168 50 0 50 0 0 65 c0 65 0 65
29 65 21 0 47 -17 101 -65 l72 -65 76 0 c45 0 72 4 66 9 -5 5 -47 41 -94 81
-47 40 -89 75 -93 79 -4 4 33 43 83 86 49 44 90 83 90 87 0 4 -32 8 -71 8
l-71 0 -67 -65 c-49 -47 -75 -65 -94 -65 -26 0 -27 1 -27 65 l0 65 -43 0 c-24
0 -47 -3 -50 -7z"/>
<path d="M3624 1959 c-3 -6 8 -62 26 -124 l32 -113 187 -4 c102 -2 187 -4 188
-3 9 5 -112 217 -128 225 -32 18 -295 34 -305 19z"/>
<path d="M3702 1658 c3 -7 16 -53 29 -103 l24 -90 7 49 c13 92 61 129 188 144
69 9 62 10 -89 11 -127 1 -162 -2 -159 -11z"/>
<path d="M1170 1530 l0 -70 60 0 c33 0 60 4 60 10 0 6 -25 10 -55 10 -48 0
-55 2 -55 20 0 18 7 20 55 20 30 0 55 5 55 10 0 6 -25 10 -55 10 -48 0 -55 2
-55 20 0 18 7 20 55 20 30 0 55 5 55 10 0 6 -27 10 -60 10 l-60 0 0 -70z"/>
<path d="M1320 1594 c0 -3 14 -17 31 -31 l30 -26 -37 -38 c-46 -47 -24 -53 23
-7 l33 32 35 -34 c19 -18 37 -31 40 -29 3 3 -9 18 -25 34 -37 35 -37 43 -2 71
15 12 24 26 19 30 -4 4 -22 -7 -40 -24 l-33 -32 -29 30 c-27 28 -45 38 -45 24z"/>
<path d="M1500 1529 c0 -41 4 -68 9 -64 6 3 8 14 6 25 -3 18 2 20 46 20 63 0
89 13 89 46 0 30 -31 44 -101 44 l-49 0 0 -71z m125 26 c0 -17 -8 -20 -49 -23
-50 -3 -69 8 -59 35 4 10 20 13 57 11 43 -3 51 -6 51 -23z"/>
<path d="M1671 1528 c1 -40 4 -60 6 -45 4 27 6 28 61 25 50 -3 57 -6 63 -28 3
-15 6 2 7 42 1 75 -2 78 -90 78 l-48 0 1 -72z m124 27 c0 -17 -8 -20 -57 -23
-57 -3 -58 -2 -58 23 0 25 1 26 58 23 49 -3 57 -6 57 -23z"/>
<path d="M1837 1593 c-4 -3 -7 -35 -7 -70 l0 -63 65 0 c37 0 65 4 65 10 0 6
-25 10 -55 10 -48 0 -55 2 -55 20 0 17 7 20 49 20 28 0 53 5 56 10 4 6 -15 10
-49 10 -49 0 -56 2 -56 20 0 18 7 20 55 20 30 0 55 5 55 10 0 11 -113 14 -123
3z"/>
<path d="M2003 1590 c-25 -10 -30 -41 -10 -58 7 -6 35 -12 62 -14 36 -2 50 -7
50 -18 0 -20 -94 -27 -106 -8 -4 7 -11 9 -15 5 -16 -15 20 -37 61 -37 61 0 75
8 75 40 0 32 -14 40 -76 40 -37 0 -44 3 -44 20 0 17 7 20 49 20 30 0 51 -5 54
-12 2 -7 8 -10 12 -5 25 22 -69 45 -112 27z"/>
<path d="M2175 1591 c-17 -3 -31 -14 -33 -24 -6 -32 17 -47 74 -47 47 0 54 -2
54 -20 0 -18 -7 -20 -54 -20 -34 0 -56 5 -59 13 -2 6 -8 9 -12 5 -17 -16 19
-38 62 -38 54 0 83 14 83 40 0 26 -29 40 -84 40 -39 0 -46 3 -46 20 0 17 7 20
49 20 30 0 51 -5 54 -12 2 -7 8 -10 12 -5 22 20 -48 40 -100 28z"/>
<path d="M2352 1533 l-2 -73 61 0 c37 0 58 4 54 10 -3 6 -28 10 -55 10 l-49 0
-4 63 -3 62 -2 -72z"/>
<path d="M2515 1592 c-28 -6 -35 -20 -35 -69 0 -32 5 -45 19 -53 27 -14 124
-13 139 2 15 15 16 104 1 113 -13 9 -97 13 -124 7z m113 -65 l3 -48 -63 3 -63
3 -3 33 c-6 57 1 63 65 60 l58 -3 3 -48z"/>
<path d="M2693 1590 c-19 -8 -23 -17 -23 -58 0 -26 5 -53 12 -60 7 -7 37 -12
68 -12 61 0 80 11 80 47 0 21 -5 23 -46 23 -27 0 -43 -4 -39 -10 3 -5 19 -10
36 -10 19 0 29 -5 29 -15 0 -12 -13 -15 -60 -15 l-60 0 0 50 0 50 55 0 c40 0
57 -4 61 -15 8 -21 26 -19 22 2 -5 28 -88 42 -135 23z"/>
<path d="M2857 1593 c-11 -10 -8 -121 3 -128 6 -4 10 20 10 64 0 71 -1 77 -13
64z"/>
<path d="M2925 1593 c-19 -5 -35 -20 -35 -35 0 -21 36 -38 81 -38 42 0 49 -3
49 -20 0 -17 -7 -20 -48 -20 -26 0 -53 5 -60 12 -6 6 -14 9 -17 6 -3 -3 2 -13
11 -22 23 -23 112 -18 128 7 20 32 -4 52 -68 55 -48 3 -57 6 -54 20 4 21 82
29 104 11 17 -14 26 -9 16 8 -9 14 -78 24 -107 16z"/>
<path d="M3055 1590 c-4 -6 8 -10 29 -10 l36 0 0 -61 c0 -40 4 -58 11 -54 6 4
9 30 8 59 -3 51 -3 51 29 54 18 2 30 8 27 13 -8 12 -132 12 -140 -1z"/>
<path d="M3220 1531 c0 -41 4 -71 10 -71 6 0 10 28 10 64 0 36 -4 68 -10 71
-6 4 -10 -20 -10 -64z"/>
<path d="M3274 1582 c-22 -21 -18 -99 5 -112 49 -26 155 -1 135 32 -4 7 -10 4
-16 -6 -7 -12 -24 -16 -64 -16 l-55 0 3 48 3 47 50 3 c38 3 52 -1 62 -14 12
-16 13 -16 13 -1 0 9 -9 21 -20 27 -27 14 -99 9 -116 -8z"/>
<path d="M1148 1378 c-13 -18 -34 -48 -47 -65 -22 -32 -22 -33 -2 -33 14 0 34
20 61 59 22 33 40 62 40 65 0 18 -31 1 -52 -26z"/>
<path d="M1269 1378 c-13 -18 -34 -48 -47 -65 l-24 -33 25 0 c21 0 35 13 67
59 22 33 40 62 40 65 0 4 -9 6 -19 6 -11 0 -30 -15 -42 -32z"/>
<path d="M1372 1345 l-42 -65 29 0 c29 0 30 1 95 103 l18 27 -28 0 c-24 0 -36
-11 -72 -65z"/>
<path d="M1527 1367 c-15 -23 -35 -52 -44 -64 -15 -23 -15 -23 18 -23 29 0 38
6 62 43 15 23 35 52 44 65 15 22 15 22 -18 22 -29 0 -38 -6 -62 -43z"/>
<path d="M1679 1372 c-14 -20 -34 -49 -44 -64 l-17 -28 38 0 c37 0 41 4 82 65
l42 65 -37 0 c-32 0 -42 -6 -64 -38z"/>
<path d="M1822 1345 l-42 -65 42 0 c42 0 44 2 86 65 l42 65 -42 0 c-42 0 -44
-2 -86 -65z"/>
<path d="M2020 1373 c-14 -21 -33 -50 -43 -65 l-19 -28 46 0 c44 0 46 1 86 59
22 33 40 62 40 65 0 4 -19 6 -42 6 -38 0 -46 -4 -68 -37z"/>
</g>
</svg>
